<mxfile host="65bd71144e">
    <diagram id="ap3Ln4ALbUO5xXeBseo1" name="Page-1">
        <mxGraphModel dx="1078" dy="671" grid="1" gridSize="10" guides="1" tooltips="1" connect="1" arrows="1" fold="1" page="1" pageScale="1" pageWidth="1169" pageHeight="827" math="0" shadow="0">
            <root>
                <mxCell id="0"/>
                <mxCell id="1" parent="0"/>
                <mxCell id="114" value="User" style="swimlane;fontStyle=0;childLayout=stackLayout;horizontal=1;startSize=26;fillColor=none;horizontalStack=0;resizeParent=1;resizeParentMax=0;resizeLast=0;collapsible=1;marginBottom=0;glass=0;" parent="1" vertex="1">
                    <mxGeometry x="460" y="98" width="200" height="286" as="geometry"/>
                </mxCell>
                <mxCell id="115" value="_id: ObjectId" style="text;strokeColor=none;fillColor=none;align=left;verticalAlign=top;spacingLeft=4;spacingRight=4;overflow=hidden;rotatable=0;points=[[0,0.5],[1,0.5]];portConstraint=eastwest;" parent="114" vertex="1">
                    <mxGeometry y="26" width="200" height="26" as="geometry"/>
                </mxCell>
                <mxCell id="116" value="name: String" style="text;strokeColor=none;fillColor=none;align=left;verticalAlign=top;spacingLeft=4;spacingRight=4;overflow=hidden;rotatable=0;points=[[0,0.5],[1,0.5]];portConstraint=eastwest;" parent="114" vertex="1">
                    <mxGeometry y="52" width="200" height="26" as="geometry"/>
                </mxCell>
                <mxCell id="125" value="lastName: String" style="text;strokeColor=none;fillColor=none;align=left;verticalAlign=top;spacingLeft=4;spacingRight=4;overflow=hidden;rotatable=0;points=[[0,0.5],[1,0.5]];portConstraint=eastwest;" parent="114" vertex="1">
                    <mxGeometry y="78" width="200" height="26" as="geometry"/>
                </mxCell>
                <mxCell id="126" value="gender: String" style="text;strokeColor=none;fillColor=none;align=left;verticalAlign=top;spacingLeft=4;spacingRight=4;overflow=hidden;rotatable=0;points=[[0,0.5],[1,0.5]];portConstraint=eastwest;" parent="114" vertex="1">
                    <mxGeometry y="104" width="200" height="26" as="geometry"/>
                </mxCell>
                <mxCell id="127" value="password: String" style="text;strokeColor=none;fillColor=none;align=left;verticalAlign=top;spacingLeft=4;spacingRight=4;overflow=hidden;rotatable=0;points=[[0,0.5],[1,0.5]];portConstraint=eastwest;" parent="114" vertex="1">
                    <mxGeometry y="130" width="200" height="26" as="geometry"/>
                </mxCell>
                <mxCell id="121" value="email:String (unique)" style="text;strokeColor=none;fillColor=none;align=left;verticalAlign=top;spacingLeft=4;spacingRight=4;overflow=hidden;rotatable=0;points=[[0,0.5],[1,0.5]];portConstraint=eastwest;" parent="114" vertex="1">
                    <mxGeometry y="156" width="200" height="26" as="geometry"/>
                </mxCell>
                <mxCell id="122" value="cpf: String (unique)" style="text;strokeColor=none;fillColor=none;align=left;verticalAlign=top;spacingLeft=4;spacingRight=4;overflow=hidden;rotatable=0;points=[[0,0.5],[1,0.5]];portConstraint=eastwest;" parent="114" vertex="1">
                    <mxGeometry y="182" width="200" height="26" as="geometry"/>
                </mxCell>
                <mxCell id="123" value="data_nascimento: Datetime?" style="text;strokeColor=none;fillColor=none;align=left;verticalAlign=top;spacingLeft=4;spacingRight=4;overflow=hidden;rotatable=0;points=[[0,0.5],[1,0.5]];portConstraint=eastwest;" parent="114" vertex="1">
                    <mxGeometry y="208" width="200" height="26" as="geometry"/>
                </mxCell>
                <mxCell id="166" value="address: Address" style="text;strokeColor=none;fillColor=none;align=left;verticalAlign=top;spacingLeft=4;spacingRight=4;overflow=hidden;rotatable=0;points=[[0,0.5],[1,0.5]];portConstraint=eastwest;" parent="114" vertex="1">
                    <mxGeometry y="234" width="200" height="26" as="geometry"/>
                </mxCell>
                <mxCell id="168" value="healthInfo:Â HealthInfo?" style="text;strokeColor=none;fillColor=none;align=left;verticalAlign=top;spacingLeft=4;spacingRight=4;overflow=hidden;rotatable=0;points=[[0,0.5],[1,0.5]];portConstraint=eastwest;" parent="114" vertex="1">
                    <mxGeometry y="260" width="200" height="26" as="geometry"/>
                </mxCell>
                <mxCell id="128" value="Address" style="swimlane;fontStyle=0;childLayout=stackLayout;horizontal=1;startSize=26;fillColor=none;horizontalStack=0;resizeParent=1;resizeParentMax=0;resizeLast=0;collapsible=1;marginBottom=0;glass=0;" parent="1" vertex="1">
                    <mxGeometry x="80" y="150" width="200" height="182" as="geometry"/>
                </mxCell>
                <mxCell id="129" value="_id: ObjectId" style="text;strokeColor=none;fillColor=none;align=left;verticalAlign=top;spacingLeft=4;spacingRight=4;overflow=hidden;rotatable=0;points=[[0,0.5],[1,0.5]];portConstraint=eastwest;" parent="128" vertex="1">
                    <mxGeometry y="26" width="200" height="26" as="geometry"/>
                </mxCell>
                <mxCell id="130" value="cep: String" style="text;strokeColor=none;fillColor=none;align=left;verticalAlign=top;spacingLeft=4;spacingRight=4;overflow=hidden;rotatable=0;points=[[0,0.5],[1,0.5]];portConstraint=eastwest;" parent="128" vertex="1">
                    <mxGeometry y="52" width="200" height="26" as="geometry"/>
                </mxCell>
                <mxCell id="131" value="street: String" style="text;strokeColor=none;fillColor=none;align=left;verticalAlign=top;spacingLeft=4;spacingRight=4;overflow=hidden;rotatable=0;points=[[0,0.5],[1,0.5]];portConstraint=eastwest;" parent="128" vertex="1">
                    <mxGeometry y="78" width="200" height="26" as="geometry"/>
                </mxCell>
                <mxCell id="132" value="num: String" style="text;strokeColor=none;fillColor=none;align=left;verticalAlign=top;spacingLeft=4;spacingRight=4;overflow=hidden;rotatable=0;points=[[0,0.5],[1,0.5]];portConstraint=eastwest;" parent="128" vertex="1">
                    <mxGeometry y="104" width="200" height="26" as="geometry"/>
                </mxCell>
                <mxCell id="133" value="city: String" style="text;strokeColor=none;fillColor=none;align=left;verticalAlign=top;spacingLeft=4;spacingRight=4;overflow=hidden;rotatable=0;points=[[0,0.5],[1,0.5]];portConstraint=eastwest;" parent="128" vertex="1">
                    <mxGeometry y="130" width="200" height="26" as="geometry"/>
                </mxCell>
                <mxCell id="134" value="uf:String" style="text;strokeColor=none;fillColor=none;align=left;verticalAlign=top;spacingLeft=4;spacingRight=4;overflow=hidden;rotatable=0;points=[[0,0.5],[1,0.5]];portConstraint=eastwest;" parent="128" vertex="1">
                    <mxGeometry y="156" width="200" height="26" as="geometry"/>
                </mxCell>
                <mxCell id="137" value="HealthInfo" style="swimlane;fontStyle=0;childLayout=stackLayout;horizontal=1;startSize=26;fillColor=none;horizontalStack=0;resizeParent=1;resizeParentMax=0;resizeLast=0;collapsible=1;marginBottom=0;glass=0;" parent="1" vertex="1">
                    <mxGeometry x="760" y="150" width="260" height="182" as="geometry"/>
                </mxCell>
                <mxCell id="138" value="_id: ObjectId" style="text;strokeColor=none;fillColor=none;align=left;verticalAlign=top;spacingLeft=4;spacingRight=4;overflow=hidden;rotatable=0;points=[[0,0.5],[1,0.5]];portConstraint=eastwest;" parent="137" vertex="1">
                    <mxGeometry y="26" width="260" height="26" as="geometry"/>
                </mxCell>
                <mxCell id="139" value="cardiorespiratoryDisease: String?" style="text;strokeColor=none;fillColor=none;align=left;verticalAlign=top;spacingLeft=4;spacingRight=4;overflow=hidden;rotatable=0;points=[[0,0.5],[1,0.5]];portConstraint=eastwest;" parent="137" vertex="1">
                    <mxGeometry y="52" width="260" height="26" as="geometry"/>
                </mxCell>
                <mxCell id="140" value="surgery: String?" style="text;strokeColor=none;fillColor=none;align=left;verticalAlign=top;spacingLeft=4;spacingRight=4;overflow=hidden;rotatable=0;points=[[0,0.5],[1,0.5]];portConstraint=eastwest;" parent="137" vertex="1">
                    <mxGeometry y="78" width="260" height="26" as="geometry"/>
                </mxCell>
                <mxCell id="141" value="allergy: String?" style="text;strokeColor=none;fillColor=none;align=left;verticalAlign=top;spacingLeft=4;spacingRight=4;overflow=hidden;rotatable=0;points=[[0,0.5],[1,0.5]];portConstraint=eastwest;" parent="137" vertex="1">
                    <mxGeometry y="104" width="260" height="26" as="geometry"/>
                </mxCell>
                <mxCell id="142" value="preExistingMedicalCondition: String?" style="text;strokeColor=none;fillColor=none;align=left;verticalAlign=top;spacingLeft=4;spacingRight=4;overflow=hidden;rotatable=0;points=[[0,0.5],[1,0.5]];portConstraint=eastwest;" parent="137" vertex="1">
                    <mxGeometry y="130" width="260" height="26" as="geometry"/>
                </mxCell>
                <mxCell id="143" value="medicineInUse: String?" style="text;strokeColor=none;fillColor=none;align=left;verticalAlign=top;spacingLeft=4;spacingRight=4;overflow=hidden;rotatable=0;points=[[0,0.5],[1,0.5]];portConstraint=eastwest;" parent="137" vertex="1">
                    <mxGeometry y="156" width="260" height="26" as="geometry"/>
                </mxCell>
                <mxCell id="144" value="Employee" style="swimlane;fontStyle=0;childLayout=stackLayout;horizontal=1;startSize=26;fillColor=none;horizontalStack=0;resizeParent=1;resizeParentMax=0;resizeLast=0;collapsible=1;marginBottom=0;glass=0;" parent="1" vertex="1">
                    <mxGeometry x="80" y="362" width="200" height="104" as="geometry"/>
                </mxCell>
                <mxCell id="145" value="_id: ObjectId" style="text;strokeColor=none;fillColor=none;align=left;verticalAlign=top;spacingLeft=4;spacingRight=4;overflow=hidden;rotatable=0;points=[[0,0.5],[1,0.5]];portConstraint=eastwest;" parent="144" vertex="1">
                    <mxGeometry y="26" width="200" height="26" as="geometry"/>
                </mxCell>
                <mxCell id="146" value="user: User" style="text;strokeColor=none;fillColor=none;align=left;verticalAlign=top;spacingLeft=4;spacingRight=4;overflow=hidden;rotatable=0;points=[[0,0.5],[1,0.5]];portConstraint=eastwest;" parent="144" vertex="1">
                    <mxGeometry y="52" width="200" height="26" as="geometry"/>
                </mxCell>
                <mxCell id="147" value="role: String" style="text;strokeColor=none;fillColor=none;align=left;verticalAlign=top;spacingLeft=4;spacingRight=4;overflow=hidden;rotatable=0;points=[[0,0.5],[1,0.5]];portConstraint=eastwest;" parent="144" vertex="1">
                    <mxGeometry y="78" width="200" height="26" as="geometry"/>
                </mxCell>
                <mxCell id="153" value="Chat" style="swimlane;fontStyle=0;childLayout=stackLayout;horizontal=1;startSize=26;fillColor=none;horizontalStack=0;resizeParent=1;resizeParentMax=0;resizeLast=0;collapsible=1;marginBottom=0;glass=0;" parent="1" vertex="1">
                    <mxGeometry x="570" y="543" width="200" height="156" as="geometry"/>
                </mxCell>
                <mxCell id="154" value="_id: ObjectId" style="text;strokeColor=none;fillColor=none;align=left;verticalAlign=top;spacingLeft=4;spacingRight=4;overflow=hidden;rotatable=0;points=[[0,0.5],[1,0.5]];portConstraint=eastwest;" parent="153" vertex="1">
                    <mxGeometry y="26" width="200" height="26" as="geometry"/>
                </mxCell>
                <mxCell id="155" value="patient: User" style="text;strokeColor=none;fillColor=none;align=left;verticalAlign=top;spacingLeft=4;spacingRight=4;overflow=hidden;rotatable=0;points=[[0,0.5],[1,0.5]];portConstraint=eastwest;" parent="153" vertex="1">
                    <mxGeometry y="52" width="200" height="26" as="geometry"/>
                </mxCell>
                <mxCell id="156" value="attedant: Employee?" style="text;strokeColor=none;fillColor=none;align=left;verticalAlign=top;spacingLeft=4;spacingRight=4;overflow=hidden;rotatable=0;points=[[0,0.5],[1,0.5]];portConstraint=eastwest;" parent="153" vertex="1">
                    <mxGeometry y="78" width="200" height="26" as="geometry"/>
                </mxCell>
                <mxCell id="158" value="createdAt: Date" style="text;strokeColor=none;fillColor=none;align=left;verticalAlign=top;spacingLeft=4;spacingRight=4;overflow=hidden;rotatable=0;points=[[0,0.5],[1,0.5]];portConstraint=eastwest;" parent="153" vertex="1">
                    <mxGeometry y="104" width="200" height="26" as="geometry"/>
                </mxCell>
                <mxCell id="204" value="status: String" style="text;strokeColor=none;fillColor=none;align=left;verticalAlign=top;spacingLeft=4;spacingRight=4;overflow=hidden;rotatable=0;points=[[0,0.5],[1,0.5]];portConstraint=eastwest;" vertex="1" parent="153">
                    <mxGeometry y="130" width="200" height="26" as="geometry"/>
                </mxCell>
                <mxCell id="159" value="Message" style="swimlane;fontStyle=0;childLayout=stackLayout;horizontal=1;startSize=26;fillColor=none;horizontalStack=0;resizeParent=1;resizeParentMax=0;resizeLast=0;collapsible=1;marginBottom=0;glass=0;" parent="1" vertex="1">
                    <mxGeometry x="860" y="530" width="200" height="156" as="geometry"/>
                </mxCell>
                <mxCell id="160" value="_id: ObjectId" style="text;strokeColor=none;fillColor=none;align=left;verticalAlign=top;spacingLeft=4;spacingRight=4;overflow=hidden;rotatable=0;points=[[0,0.5],[1,0.5]];portConstraint=eastwest;" parent="159" vertex="1">
                    <mxGeometry y="26" width="200" height="26" as="geometry"/>
                </mxCell>
                <mxCell id="161" value="user: User" style="text;strokeColor=none;fillColor=none;align=left;verticalAlign=top;spacingLeft=4;spacingRight=4;overflow=hidden;rotatable=0;points=[[0,0.5],[1,0.5]];portConstraint=eastwest;" parent="159" vertex="1">
                    <mxGeometry y="52" width="200" height="26" as="geometry"/>
                </mxCell>
                <mxCell id="163" value="message: String" style="text;strokeColor=none;fillColor=none;align=left;verticalAlign=top;spacingLeft=4;spacingRight=4;overflow=hidden;rotatable=0;points=[[0,0.5],[1,0.5]];portConstraint=eastwest;" parent="159" vertex="1">
                    <mxGeometry y="78" width="200" height="26" as="geometry"/>
                </mxCell>
                <mxCell id="164" value="sentWhen: Date" style="text;strokeColor=none;fillColor=none;align=left;verticalAlign=top;spacingLeft=4;spacingRight=4;overflow=hidden;rotatable=0;points=[[0,0.5],[1,0.5]];portConstraint=eastwest;" parent="159" vertex="1">
                    <mxGeometry y="104" width="200" height="26" as="geometry"/>
                </mxCell>
                <mxCell id="205" value="status: String" style="text;strokeColor=none;fillColor=none;align=left;verticalAlign=top;spacingLeft=4;spacingRight=4;overflow=hidden;rotatable=0;points=[[0,0.5],[1,0.5]];portConstraint=eastwest;" vertex="1" parent="159">
                    <mxGeometry y="130" width="200" height="26" as="geometry"/>
                </mxCell>
                <mxCell id="169" value="" style="endArrow=diamondThin;endFill=1;endSize=24;html=1;" parent="1" source="153" target="159" edge="1">
                    <mxGeometry width="160" relative="1" as="geometry">
                        <mxPoint x="690" y="160.00352941176465" as="sourcePoint"/>
                        <mxPoint x="800" y="172.94470588235293" as="targetPoint"/>
                    </mxGeometry>
                </mxCell>
                <mxCell id="170" value="1" style="edgeLabel;html=1;align=center;verticalAlign=middle;resizable=0;points=[];" parent="169" vertex="1" connectable="0">
                    <mxGeometry x="-0.8035" y="1" relative="1" as="geometry">
                        <mxPoint x="6" y="-3" as="offset"/>
                    </mxGeometry>
                </mxCell>
                <mxCell id="171" value="0..*" style="edgeLabel;html=1;align=center;verticalAlign=middle;resizable=0;points=[];" parent="169" vertex="1" connectable="0">
                    <mxGeometry x="0.6187" relative="1" as="geometry">
                        <mxPoint x="-4" y="-15" as="offset"/>
                    </mxGeometry>
                </mxCell>
                <mxCell id="176" value="" style="endArrow=diamondThin;endFill=0;endSize=24;html=1;" parent="1" source="128" target="114" edge="1">
                    <mxGeometry width="160" relative="1" as="geometry">
                        <mxPoint x="560" y="162.53384615384618" as="sourcePoint"/>
                        <mxPoint x="450" y="159.99538461538452" as="targetPoint"/>
                    </mxGeometry>
                </mxCell>
                <mxCell id="177" value="1" style="edgeLabel;html=1;align=center;verticalAlign=middle;resizable=0;points=[];" parent="176" vertex="1" connectable="0">
                    <mxGeometry x="-0.8865" y="2" relative="1" as="geometry">
                        <mxPoint x="4" y="-15" as="offset"/>
                    </mxGeometry>
                </mxCell>
                <mxCell id="178" value="0..*" style="edgeLabel;html=1;align=center;verticalAlign=middle;resizable=0;points=[];" parent="176" vertex="1" connectable="0">
                    <mxGeometry x="0.3733" y="1" relative="1" as="geometry">
                        <mxPoint x="-4" y="-13" as="offset"/>
                    </mxGeometry>
                </mxCell>
                <mxCell id="180" value="" style="endArrow=diamondThin;endFill=1;endSize=24;html=1;" parent="1" source="168" target="144" edge="1">
                    <mxGeometry width="160" relative="1" as="geometry">
                        <mxPoint x="320" y="490.00352941176465" as="sourcePoint"/>
                        <mxPoint x="430" y="502.944705882353" as="targetPoint"/>
                    </mxGeometry>
                </mxCell>
                <mxCell id="181" value="1" style="edgeLabel;html=1;align=center;verticalAlign=middle;resizable=0;points=[];" parent="180" vertex="1" connectable="0">
                    <mxGeometry x="-0.8035" y="1" relative="1" as="geometry">
                        <mxPoint x="-12" y="-14" as="offset"/>
                    </mxGeometry>
                </mxCell>
                <mxCell id="182" value="1" style="edgeLabel;html=1;align=center;verticalAlign=middle;resizable=0;points=[];" parent="180" vertex="1" connectable="0">
                    <mxGeometry x="0.6187" relative="1" as="geometry">
                        <mxPoint x="11" y="-13" as="offset"/>
                    </mxGeometry>
                </mxCell>
                <mxCell id="184" value="" style="endArrow=diamondThin;endFill=0;endSize=24;html=1;" parent="1" source="144" target="153" edge="1">
                    <mxGeometry width="160" relative="1" as="geometry">
                        <mxPoint x="340" y="518" as="sourcePoint"/>
                        <mxPoint x="449" y="510" as="targetPoint"/>
                    </mxGeometry>
                </mxCell>
                <mxCell id="185" value="1" style="edgeLabel;html=1;align=center;verticalAlign=middle;resizable=0;points=[];" parent="184" vertex="1" connectable="0">
                    <mxGeometry x="-0.8865" y="2" relative="1" as="geometry">
                        <mxPoint x="13" y="2" as="offset"/>
                    </mxGeometry>
                </mxCell>
                <mxCell id="186" value="0..*" style="edgeLabel;html=1;align=center;verticalAlign=middle;resizable=0;points=[];" parent="184" vertex="1" connectable="0">
                    <mxGeometry x="0.3733" y="1" relative="1" as="geometry">
                        <mxPoint x="8" y="-2" as="offset"/>
                    </mxGeometry>
                </mxCell>
                <mxCell id="187" value="" style="endArrow=diamondThin;endFill=0;endSize=24;html=1;" parent="1" source="114" target="153" edge="1">
                    <mxGeometry width="160" relative="1" as="geometry">
                        <mxPoint x="314.79166666666674" y="465.0000000000002" as="sourcePoint"/>
                        <mxPoint x="400" y="560" as="targetPoint"/>
                    </mxGeometry>
                </mxCell>
                <mxCell id="188" value="1" style="edgeLabel;html=1;align=center;verticalAlign=middle;resizable=0;points=[];" parent="187" vertex="1" connectable="0">
                    <mxGeometry x="-0.8865" y="2" relative="1" as="geometry">
                        <mxPoint x="13" y="8" as="offset"/>
                    </mxGeometry>
                </mxCell>
                <mxCell id="189" value="0..*" style="edgeLabel;html=1;align=center;verticalAlign=middle;resizable=0;points=[];" parent="187" vertex="1" connectable="0">
                    <mxGeometry x="0.3733" y="1" relative="1" as="geometry">
                        <mxPoint x="15" y="-4" as="offset"/>
                    </mxGeometry>
                </mxCell>
                <mxCell id="190" value="" style="endArrow=diamondThin;endFill=1;endSize=24;html=1;" parent="1" source="114" target="137" edge="1">
                    <mxGeometry width="160" relative="1" as="geometry">
                        <mxPoint x="630" y="250.00352941176465" as="sourcePoint"/>
                        <mxPoint x="740" y="262.94470588235293" as="targetPoint"/>
                    </mxGeometry>
                </mxCell>
                <mxCell id="191" value="1" style="edgeLabel;html=1;align=center;verticalAlign=middle;resizable=0;points=[];" parent="190" vertex="1" connectable="0">
                    <mxGeometry x="-0.8035" y="1" relative="1" as="geometry">
                        <mxPoint x="3" y="-11" as="offset"/>
                    </mxGeometry>
                </mxCell>
                <mxCell id="192" value="0..1" style="edgeLabel;html=1;align=center;verticalAlign=middle;resizable=0;points=[];" parent="190" vertex="1" connectable="0">
                    <mxGeometry x="0.6187" relative="1" as="geometry">
                        <mxPoint x="-8" y="-12" as="offset"/>
                    </mxGeometry>
                </mxCell>
                <mxCell id="202" value="" style="shape=stencil(lZzZsh23DUW/5r52cR6eHec/XGU5UkWRXLKS2H8fMrd4ho3uRZ03DcBpNhsENoBNvMWf/vj4y+8f3oL74/u3r//88N9Pv37/+Bb/9hbCpy8fP3z79H386S3+/BZ/+u3rtw//+Pb1319+ff/7779Myfmnf339z/yFP9/16uHdVArur/d/cEeP//+Hv7+Lf/705Um81Sdxf/hwLd6P6EQ8+Wtx744SRb44kA9HSiLfSD4d1Yt87yBf9ffD4fO1/Ni81EQ+wPaEqOsZ8rA/Y/ud0/Wka/nojtBF3pF8PFLW/YH1x/La/sd+BJUv9Vo++aN2kc+w/ymt7X6wtwLy5ci6nthAvh1N7SfC/mR/OLVn+r45HkHPi4f9zFm/7zi9sP5cj9BEvtH6u67H4fcqXu3TrQ0+lw9q/w79Q0lHTCIf4H1LPpq+r4fzXuoRi8rD/pS2tu8u78A+61huVnn4/TqOh76vg/2pcf33gzzYTx37GV+Rz0cx70vy5ehm/STfrH2ifNd4wfLNLXf/g/LB2hvKx6O89Pt5ueMflC8vrqceub4i315cfz/qK+vp7qiv2E8f9q/nkeJXD0fW30d4Eq39RzhfPR1O9zOD/xnyZn86+M+ej6jxN9P689ENfoB410e8fn7fyO87zu+zP0/oz3tdP7fk83IAV/Jib5Xfty13ueT7cqhX8vJ9/YhQEACGQpEAHxAhDoUmXyzxJ+6HezZpX9ZHvFII8g7jmfSRB+h+NtIZ5emU9SMLqgxHoW3tukvDLtJGQXBoWW91pVDlHepuW9vzLoXbMy8VnpcU/TocVwpdzk7cvUN/foeY0Rt55xQ+xZGegX850+h8ovsCiLcT7dmFdQ3hKe6+hPqMsgzy8kvIE9pReUliHANne36CmN8A2omNozy/w0Dalb+1HKEBtdHz9SM9K5RNKOzqWgfY3nwHwe5lfDg+pO7ZNMrGe7ejP7uygZ/RMxm4XG4A4tIdS3wY1krm3TShG5A48BPi80sPTLx5aS9LKguEXsU4wZwT5ZLx1WX9N4W+qi5XCvk5BjW/8vLLMP3sygbQRVuqK2reFNIy+CvgIGFxQF00vqIhZWBXSq170Sg3wGtm7OPlpccpJzeT1Qn0jasc2fjzkgYepXLCgIcC3wYgdfQdRpitqkAJeb8d+ZtCWm7hEhEHVUAsEPTDjW2gHHVsojiBuW+0S07j6FBA43OaVc1PCU8YhuDMExocoGFqAuI6u8phzApcM564kelJYJ8K9A7pZJfwCdEY30YhqF/aKXhzgPKKGFfpufiljcLwpN0uiRTqOsGPClSxMV5jp5C0JLFTiAsU/qjC6baCq6xOa/zTvGGXSltO5VEBTlwxed9QoMBe8smHoyNaklbC+q0Wda4QtZQ0vQZs64RT5h0yBPYB2CTsbp5gq6nzHWCXBoZs5gmEjLOpx29sKVuvcTP4qwp16qoQ6QlhVUQfFAgvZdMDmmAC8FIyTYUBV6hLk6omHBMQURuiKFifkAs+XEom7NZV+TpXiFq46pw/pKBgfQJTUhjW2lUhcq9GY1xDVDly1WSWVAAJjHRYmokzQQDTiEnL5/dqyrlC0Hr1zIrgAEVn/FLHl54dTrMkAomhaklwprPU8yvLmB8UCJzMGl1VBerphqhdqnvp4lzBL8f4qABH9N4WudWwHKe73hbidhpVE7OtRjZ+oCN68OnkvRvVZ2wQ6lhH8EETrWl/WAHSHHwocEe+GTeA2PhEnn6/mgNU8QDV5bUewwMBAXPeGJrYJC4dlYKD8UmRXf0q0D3kfFSLso6eWwhBq2mNfWQwqf2thn9uQNphbwmRm1dGx71Hdirv1H5qx/13K4m/yVdsqTpFngOAU1XWqb0NOM3rl1xygOMIPsIUZAfUpZa2U99bApYmx/qlw9JXj+xCPjzb28CI5OOc1sMGRCRsZEBw9ghc3FGfv++Ab4SBDaNgoDekEClESBlb/l4LtwNZUZ7tNXwPYMXnRfxhbFjBvBGAbvIFq4XBdPTSQoYX8oKuo8fiYtBqzYgglWCjYShV/L5Rz+Pw2OQfTEQdHpj8QzyidJ4CFo+Mf54WSCDWMNY65qVR7d9zNTjpfnrO6EY8kt/fxTvJ5yanDt43rcrBHWVhvMt6Hht28LOm+QUbYEX5LgmNzdSMRzaLWEZ8refCjL6qx8ZuVU8bmOtimrQY50yhK6ys4EJczJgbAlU/U0SjqQrCImKYqjA7oQuv6yPexakZXZUzl1ZmfGUE+SVx98piihad0sbepcsdkb9XFjS+i0eivym7MSBUKOoKAhfYtCbC3NiqNfnd8TDMyc3hU+In1o0XjfS+GCq2VAWxYWORUqUIm+NhDh+RfsyvRwzgZu2MJ8zOJGx5mc5jwqbdi+JFkxnu2hdde8E6STFNUHR6WXvXnsmqWTOZEYkp0zA1xnt54kJekUrBwlMyXLSGbYakyHXmKog89IB7XH9U/s3GPUVtVwXuWUdzCsvCUhfywpUPjYuR65TezqFDcnfU/YlhkwmIOx6ZAJHpbCZQMJMJWgQfmQxWCRWJJo+tZ9N/SRHJ+371pR8yPcqEva4/MVvF6/ozk7WdnscckHriDIsp4WUXp/aZK7ZqnKEkdWweOYVRJeB5dIbBlDeVkWQqKVypERRY+TKEM1yhiJUvp/5kEnnQPqXNVDuT8zRMN49MiqBd2tmhh/00xIvJGUD/6YUwU7GvZjLV1jGFSJppd+baZtNf4swz63om94Wa0qYdxefLpG89o/9phjRS8HKPYcvNviZxd5R42Stmq95cbugbBxcM86AhJJ/tDNMMQBedlI63aQmetGQaolXb9ZkK1GExjaWNgu1d7RS8KfE3bP6e9N8atwRth68hDWwiGbOtuy6lWRKlMLMPap5ARORoWV2NGyeWaNa4MpeUOD/PAwGubOgWFdON2fGuqkDNhNlTN0+gGJKc4StVrJ9NXoDxStSinMwDpwp4JzNp3Jy3SgjnFxMYyiJKnitUwxAsqxJ3rtC1yTGbghR63AlpEUkp4YS/R22RyZMxFCqMhpYykjA8TK5PUAW68TDZRFEVqBVxwlfiXtAJIyphynLCuUpYyyg2Am2ekDRL6An5SpOZZp6Ad1LrCWOWWvbl1nB//A5UTTI9vx2SsQxBJvGecBATduFPWI4bBcuj3ChYpuZGwXJBWeGEbbpRON3W1xizGwXLyU2Y056wfvlLn/CKE/arJnPZLIkK4K0Z9jW7mcm+Ngp0RLvpsQ8Fygwng9zw7Btz1JWkFflyWDC0SG4jj99TVhf3/YeCXJ3tPLuiW2aKR7804428tOPLNlkxX+t82SZrP6JxM3/EfTGNYb9UQ+1F28PzhLCCgPVxBjfXSDQtDky4KuqXmsMDNBCeFFJr50urpgFWGbd20+2rmW2pameoMhLohgZWw+6ml+Xl4FWYpkigdL4w1JQpUbaXjaUTMrABfjhzW23AFbw7Y8aJDEBEid+8cWfYP9Tdn/zYZ9MYKJDy6ckefN6lnPnKt8HeA/pSDjQVpEnjsW7VDcU2MWVxKkiHtyDVeXIsTel5cydbW86eT5xRiJ1jnHmHkWxS0jQVpPyfeRZAV9waI99W63q9LXos5tib67OmRSeua4kyNCypTQXpORW+GmawRkirZ3h54uQdIl9vM3dcA7c9rNfwnQ9Q08K4rxzY7RSEzB+uGeLLrRh8GR+knc5UmW4oHp4n88ygKLxW9sWGWFGxY9/NJCi+AdgNK5+T73lxR3h97Omz6abytWST5zItd04yeTZTjxWTeS9U+RXUDJiTWMykLPp9083z7LLNJBmP7tFOqtnI21PJ8mbSzkbeTPLZyJtJQRt5M4loI28mHW3kTbOB5e2kpo28mQS1kTeTpjbyZpLVRt5MytrIm0lcG3nTLdzIm0linutgJizx5Do7CY0n45WsPH+evFcsu4TJY8Ged7wm4u3+U8Y/a52G68lXMwXFBqRJ2Ul9TA6YkwDV/1Nz3U4aDIgJ7CTDgA2hOSlR4wulNnYSY8CmWfJaGgjIbLSTJDk+xqJsHZ60EKNywyLiEztpkydr2UmeTEW2k0IjAl07iTRiLcdOOo3Y1JmsckMt3UxqVeYqz0IyI6YY/5hrAch1MXg1YCnghItKh9FwgG+Xss59ldZweYhbMRkJ0uyKOuaA+UuxA34b/7qGCb69Z36drLLo+E6+q2UwP2dehpDsN0xXM9uUamZVW70ODfjlOcwb8fGH+8jn3z59/vw+Mfrx/3VE9Pin9/HS8ef/AQ==);lineShape=1;" vertex="1" parent="1">
                    <mxGeometry x="509.2518651092644" y="519.6190475725175" width="600.4493794655159" height="188.0934771252162" as="geometry"/>
                </mxCell>
                <mxCell id="203" value="" style="shape=stencil(lZzZshzHDUS/hq8dtS/PsvwfihBlMSyLCkry8vdGme6504meU7xvVxTQ010LKjMB1If83e8///Dbxw8p/P7Hl89///ivTz/+8fOH/JcPKX369eePXz79YX99yN9/yN/99PnLx799+fznrz9+/e/ffliW669/fP7nesK/v/rFI5TllMJ/vv5DOHr83z/89av5L59+vZrXi3k6ZiDzGC7m9YgDza8v046ZyTxdnz6PxOb9Yh7jMQvZ5+u3xnqERPbl+vZxnE94YV9lLOMx8PlN7OuRJ9n36/vY+PD7///XT/ucjobjM6/Dn9sR8XvnuNrPo8JqSEe4zldJx2hkH9vVvh0BxicdSeznkfH5+WpfbXzw/cu82tv7oH27zle18cH3Gdfxb/kIsP6Tjn9rR4b3yUe8jn+z9+lkn6/2PR0V1k8+Z/9hX4+E9rI+ez8afG/R9dPn0WA8y5HzxX5YBID3KUeLV/t0dHz+FHt7Qwiej9F42Fv0hNhc3fvwfrTVKPb9iBAfmsa3Mc4RfmE/rvM75vmLt/Zd463ZT3iffozr/M5wDHj+OMp1/UyLqBAf5jk7D3tbz7Depu7faTuCDsegC26W83i9d4hnPHty6HQCxHMAHw71qPRK6RzBh0M7EuGBfPShDhSkYzmGjFI/19W9g1um5jBplPqRrutoDoxzdkzXpg6dgMQ8YcmTw6TIHvXomPOEOvcOLrZPxjYWXFJ2DrA5fbRYDnRaNvfRG4dxxKkOtB9sAxX30eSQw1Hf9QvZIFF/l4OdmW7i0KHooblzqC4qbRyawrqdw3AweeMw9aDdOJR44oJvdchHqe9ysFFyiw8duoKvnYNF73eNUo1njPhWh3zG6m91qDcOCcJM7TdLI0GorP7ImkjQWjwR3ZMDHVnNz/Q4BgSyVhVFmgOhyNbPKPTkEOkXpvIEO1CI5/RwzK4OBHwM9zZxaGdou3coCvXsnCZqYUi5yTcUpMrdR+9yhud7h6HoeT6m8t5hnuDxCS4RHB7hxiGQQzzp0xOAo4Pd8LiIG4YQ6WAf2WGNgBTyDcE/YVYaJYPw6jBOBPXKQVjbQt30Su0UNZ5gPY5SVx5vj2j0DY8d/ERMSAWyMenOgeCPjbpQQxto+oa1EK6r1aaywSvZUpPFZ4tl0CslPRTX6qJXsu0ir8R0coF/GaWA+og51KuD7UFaSytGCOMeyLDmQ2B6ciAJabojyzg6jtKDoj4cWLQxh3rdohYLSfWYjob2fBLHe4euulBnHWwdH9cN1CMKSYvAXLeoHTH4DUMpTRsoZawz87o01jFJEzd04uwg7uTg2HErJ8585SB0oLF8ttCRqMHxBNevHIoIdCz4mIOgmTpQMVkOTtJrPErtOg+VNZwbh3wStZcO17hUE28g/w0WZvgbZC2VcSpZL+fhulpLRxi6ZlocKmK+BWuvQcAYReelIbG1sPY/3RlXtltUgoDxrkj7YagmsORz+oZxrpyHQ0GKb2FmXIfV6Gyhme66NIxh4ynaVcEy0k/qzxtwfjh0JBwrel+Xd6p8KDYVc5YOzA75OnFLiOcTSFDlyvzQ0nCHYgpI/JZIJ5kn2yGbc/q6NOJAGGoOAqVjR2Rs0GE0dcAwU44iv9AQ3S8+cp2HWE+i9gpgCQeKBemxOcTrao2G0SiQORUuJo58ScUcc6AUneHWeV0aMfIGiooqzQHXUlD4E8OpErxykHPaHCh6G7oXkGgolOmDIDhe3MZP6nVQB4ZuYy9y/Aw8o42LaN4HcbpRkSjkhAmZy7tZXCZ7Jyz1U054xaNl0XXU+I0kSPzqJ3m6t++qFPNpbgA+6vvTPu5FEUzHQGHwPVz3fcP10N2WaZg0aVOPzYaHoEFxEW8aov/WNI/fECgYEJfvrcjyluQmqBaPJ0PVcjxVlvScblOwZMQwtYx/wZhYmx41BfeXIWoRADMy+aXDCizC+TU8LXUjmd8/uDoKpF5l6v7N+L2Gvn0NDsxXaSecebOnMhPD3sK70tFZzJf4lk4YeW+flOIkjFeG1AXcMIpdQF0AHZbhGE7vak8wIj/ktCd72F+5KdZKSJQN1fd32TuhKaGyayQg6vijfdDziO3Xca7zhfZdM8Ib++bXJ9oXB7/ZPuv5vrF32S+2X9ljYSicYh/KjhOWyRjO7u75cL4bzE46X4THVso/qT19b3IEC7mJwc2p84v6xKkifVv4Gar5sLjXVfxg0aoplkmoolUtt0iIzatjz2he9GBJCMyz4p6ElDC/75hI/umkzSUV9BMe0lHTW7xmXBqTj5SbFUk7Npzn2Zs5AdqgVa8By7CCwk0WpoJGj4BFZ0E11HCyhVefqk+nxE7Qo5+FkKB51HBm9V+ZDzGnFRkUhwck967YJCJMC8pyI6LAoLUvEYtrgmJeVgE8p0fIEpwUg6J1UHE1ICFz+IwFiRtzqsILvqA986dGMScRNmgtTUCuFBQKbTdfUnNcM1XNiUgG5fEBcURQeS0gjbzZfFSce7O1ibQFPVfjJuhJfI+oMr/bfLjAQSWPqi9FPD2Srvd4RpIX5io54rinU3t6M6fN52q6I05T1pLciFUpRau6EhYI38AfOptuwBWZN90eCTefUyUjloC6hOwm/6TbI6JmuDCzPh5bSZI/PwgaeszPpdOLU+giJg3Wc5aIrQaeE0VMGHrOtdlUjtNFRB6eM27sHSfd2DvOu7F3nHpj7zg723tNYGPvNIeNvdM0NvZOM9nYO00moga1NB+dLwIhS1PS8aSs5dKs1J5KsJYmpvuReGZxvUXxTG291PT0eyn+LM1Q2R0BndJ0fBJynuKqERPmIJamqoxtp9nq+xN/rC5+cs64ujYJ7pusVec3I6+qzfXi8fe6HFzG91+av9PkYXxa1PhTOCeSNVtcUHto1TeWUpJ/5VyG2FNB7srpdLEntWLljPT5NL89ank6twaunJf07iF2Xzk1qf/C8e+uDK+dOsC9fffPp/N35Rw1Z0fjuXKa+j6Us1s5U5cTpOe7Ql/OUY5ykvc3exrPlVPWnC+Kkr6q8QxI9/au5JAL18ZQ/jTwvBuu5mvgep7BNTgh655Raffk+i03v6sogWo9kjsguTnwptYjYtpoZl0SMfIYZa1MiptyrOxKNxLSqVVCI6d85sqkossoFmzGWxXE8g31RGr3Dr4yqXH9VnW6Wecqt+qoCbelmoOoueYwueBLDr+NLrNKygQdsKBgDgLPNjkSc5Be4kW9ufBO+tJS5Yr67rh5Q4K7qqDlowfWrby1cT4wSOByrKGJqsyZ1+kqD3LZ1WTKWsoNFYnV9ylFnNyc6qug8+So4aqrDPtjIJtKXQ3M4zxMxeKr247LpqXAoXTMeM6p6NTwPJbgO7peWflfDlLDwt0ZMThZeVNofeex6WLxX9F2MyG72nB6okDjZqJO7Llacy1V+5vywakJnpYQmcypSKBtWnemg56Vt9BQCbN1PoNcaXbjCsIVaKSLJTAWcKHMAD6lnqavqct8pHTN+vVNsatve6knx3rlIFlLIwWkwa1jUTAxg9x1UssvDLzgxBy0E2fyNzgZaATuxHGNl2PTY+KKjsdGyM2u4W9TXu6kBSMrGI5dMvuNrbwC69ImvLoS6eIMx25HZTo2tGN2ERzmJ9r71k/g+IoAiSD09ohXDEsYx2q85E5NkSzHRGy86oKv+2FyIn+4evQ1M/RK7oaj1ffItFgQ0+QcyHDFBZMLWGxDqkNGUtP9rRAFR2k1ELrOZYK6FueEK65mau6+1ntYNmpJcn323AzRo/uGjud0cw1Oq12IBDHXibPvs/eXbZCk1Jwk/9YY9koDFOgwuTFgdes5h/He+w4IOtzeqECkxt/Z8AQD7z1c9f7Ow988sfVwl1tsPdz9GVsPd3HD1sPnzDYe/qKRrYe7y2Tr4a5L2Xq4G1m2Hu7Sl62Hu1dm6+Gurtl6+IKljYe/gGfr4aL51uPuGiFSX24vKkKHu6uQJl2FlNwdVhN1thQ1G7sC1Sb97IItlZFG3yM1UcmLXRPQq+WVfqG6q8EG3/ZYXLAdeHBHB5VnxwMj3l2bgneJOVV4bm6gDDf3oeGwBiWnSzIlBuLuKcp4w8JwF1JlvLxmOATIzQquo3c1EBIW0jzNZOHFdduOybf1uGs3BpLMqqLiYI7peoFGQ4rp72Rk7avcXEySKDGuDPYt83QftB1x4sKWrNpdn1j4k7W8tzMQdUmOXrmZxuXV0q4c7WrfJhY+JM1jtYZCedI6AIOxpAC7Xq86sXDJXSNTG+5f1+9bmV9F1brKxP0bNYtVdu+j2u/uQmcZf8NwqJpqHnFdcoA3QAvqzAklU3fvT+L7yOIZLR/2FelqdL1A3J8dVZZYlWpYxy37PdZNr4CWb0bENq4XkW+FDNoa2TZPl9VTN30ReoH1puDeNQvQVrkx3xQgaxEvBdqb8mY6J9zIhM0yECDDenPQqBmwYytoQ+3OfLqn48hMHcjNip86kLhhQxJzxJC++h/rTt99+z2b2x9vF+3/9OmXX77e0//8//Vifvunr5f65+//Cw==);lineShape=1;" vertex="1" parent="1">
                    <mxGeometry x="406.40750903158664" y="78.3728078788364" width="647.408424617916" height="339.81768683250743" as="geometry"/>
                </mxCell>
            </root>
        </mxGraphModel>
    </diagram>
</mxfile>